/* XPM */
static char *result[] = {
/* columns rows colors chars-per-pixel */
"64 61 236 2 ",
"   c #753D00",
".  c #7B3F00",
"X  c #744300",
"o  c #734C01",
"O  c #794C00",
"+  c #764604",
"@  c #7B5501",
"#  c #7F5802",
"$  c #7C560C",
"%  c #7E590B",
"&  c #7E5A12",
"*  c #7B5711",
"=  c #834D00",
"-  c #884F00",
";  c #835401",
":  c #895400",
">  c #835A03",
",  c #8A5A00",
"<  c #855D0A",
"1  c #975B00",
"2  c #835D15",
"3  c #8C6201",
"4  c #8A630D",
"5  c #956400",
"6  c #9C6B02",
"7  c #966A06",
"8  c #9B7101",
"9  c #8A6314",
"0  c #8F691D",
"q  c #956B1A",
"w  c #9C761A",
"e  c #A16D01",
"r  c #A47402",
"t  c #AA7600",
"y  c #AC7C02",
"u  c #AC7C0B",
"i  c #A57707",
"p  c #B37E01",
"a  c #BA7E00",
"s  c #A77918",
"d  c #845D23",
"f  c #946A21",
"g  c #997527",
"h  c #8E6937",
"j  c #A27C24",
"k  c #AA7A2B",
"l  c #A4793D",
"z  c #B07F20",
"x  c #8A6B44",
"c  c #937348",
"v  c #927758",
"b  c #A47945",
"n  c #927A60",
"m  c #AE8103",
"M  c #B38301",
"N  c #BB8501",
"B  c #B78901",
"V  c #BC8B01",
"C  c #B4860A",
"Z  c #B5890D",
"A  c #BB870C",
"S  c #A8811D",
"D  c #B58913",
"F  c #BD8B14",
"G  c #B3831A",
"H  c #B58A1B",
"J  c #BB8C1B",
"K  c #B58314",
"L  c #BD900E",
"P  c #AA8328",
"I  c #B58B23",
"U  c #B98E23",
"Y  c #B58C2B",
"T  c #B68B29",
"R  c #BD9124",
"E  c #BD932D",
"W  c #A88738",
"Q  c #B58D3C",
"!  c #B78C33",
"~  c #BC9233",
"^  c #BE963E",
"/  c #C48C01",
"(  c #C88D00",
")  c #C28C0C",
"_  c #C58600",
"`  c #C59302",
"'  c #CB9402",
"]  c #CE9A01",
"[  c #C3920B",
"{  c #CB9A0A",
"}  c #C9960E",
"|  c #D39C01",
" . c #D19704",
".. c #C28D19",
"X. c #C49214",
"o. c #C6931D",
"O. c #CC9C1D",
"+. c #CB9A14",
"@. c #D39E17",
"#. c #DAA303",
"$. c #D9A20B",
"%. c #D5A31D",
"&. c #DAA617",
"*. c #EAA902",
"=. c #F7B500",
"-. c #E3AA16",
";. c #FDBC10",
":. c #CB9D24",
">. c #CA9D2E",
",. c #C59828",
"<. c #C19634",
"1. c #C49A35",
"2. c #C79B38",
"3. c #DA9F25",
"4. c #D3A323",
"5. c #D6A52B",
"6. c #DBAA2B",
"7. c #D9A728",
"8. c #CCA23D",
"9. c #CCA537",
"0. c #DBAC35",
"q. c #D5AA39",
"w. c #DCAE3B",
"e. c #D5A837",
"r. c #DDB13A",
"t. c #C9A12F",
"y. c #E3B12D",
"u. c #E7B326",
"i. c #E3B234",
"p. c #E3B43C",
"a. c #EBBA3A",
"s. c #E9B635",
"d. c #FFC50F",
"f. c #F8C737",
"g. c #FFD538",
"h. c #F7C52C",
"j. c #AC8847",
"k. c #B38C49",
"l. c #B99349",
"z. c #A98659",
"x. c #BB9654",
"c. c #B99757",
"v. c #AC914A",
"b. c #BBA459",
"n. c #988267",
"m. c #A88969",
"M. c #B59667",
"N. c #B89B75",
"B. c #A38F7A",
"V. c #BCA56A",
"C. c #BFA175",
"Z. c #C59D45",
"A. c #C29C55",
"S. c #CBA446",
"D. c #D1A642",
"F. c #DAAF43",
"G. c #D5AD4B",
"H. c #D8AF4C",
"J. c #D6AB42",
"K. c #DEB245",
"L. c #DCB44A",
"P. c #C6A658",
"I. c #D4A853",
"U. c #CCB259",
"Y. c #DBB55A",
"T. c #E2B444",
"R. c #EBBA43",
"E. c #E2B64B",
"W. c #E4B94E",
"Q. c #EBBC4B",
"!. c #E8B844",
"~. c #F1BC45",
"^. c #E5BA51",
"/. c #E9BD53",
"(. c #E2BB5D",
"). c #C4A468",
"_. c #C9B465",
"`. c #D8B866",
"'. c #C7A977",
"]. c #CAB876",
"[. c #E6B969",
"{. c #E6BC75",
"}. c #EEC14C",
"|. c #F3C14C",
" X c #F6C446",
".X c #FFDB4D",
"XX c #FED343",
"oX c #ECC254",
"OX c #EEC25A",
"+X c #E5C85A",
"@X c #F1C55B",
"#X c #F5C758",
"$X c #E4D25F",
"%X c #FFE34B",
"&X c #FEE659",
"*X c #FFF25D",
"=X c #DFD176",
"-X c #D8C36E",
";X c #E6C767",
":X c #F6CB61",
">X c #FBD565",
",X c #EAD979",
"<X c #E4C379",
"1X c #F8E968",
"2X c #FCF76D",
"3X c #FDF97A",
"4X c #F7EF75",
"5X c #AA9985",
"6X c #B8A186",
"7X c #B8A394",
"8X c #B8ACA0",
"9X c #C6B397",
"0X c #CBB28C",
"qX c #D4CA89",
"wX c #D3CA88",
"eX c #E8DB86",
"rX c #E5DE95",
"tX c #E0C182",
"yX c #F1E889",
"uX c #FFFF85",
"iX c #FFFF8B",
"pX c #F7F887",
"aX c #EAE399",
"sX c #F7ED95",
"dX c #FEFE92",
"fX c #FFFE9C",
"gX c #F8F499",
"hX c #F1ECA3",
"jX c #F9F6A3",
"kX c #FEFDA4",
"lX c #FEFEAD",
"zX c #F6F5A6",
"xX c #FFFFB3",
"cX c #FFFFB9",
"vX c #EEECA6",
"bX c None",
/* pixels */
"bXbXbXbXbXbXbXbXbXbXbXbXbXbXbXbXbXbXbXbXbXbXbXbXbXbXbXbXbXbXbXbXbXbXbXbXbXbXbXbXbXbXbXbXbXbXbXbXbXbXbXbXbXbXbXbXbXbXbXbXbXbXbXbX",
"bXbXbXbXbXbXbXbXbXbXbXbXbXbXbXbXbXbXbXbXbXbXbXbXbXbXbXbXbXbXbXbX].bXbXbXbXbXbXbXbXbXbXbXbXbXbXbXbXbXbXbXbXbXbXbXbXbXbXbXbXbXbXbX",
"bXbXbXbXbXbXbXbXbXbXbXbXbXbXbXbXbXbXbXbXbXbXbXbXbXbXbXbXbXbXbXc.Y.bXbXbXbXbXbXbXbXbXbXbXbXbXbXbXbXbXbXbXbXbXbXbXbXbXbXbXbXbXbXbX",
"bXbXbXbXbXbXbXbXbXbXbXbXbXbXbXbXbXbXbXbXbXbXbXbXbXbXbXbXbXbXbXv.I.c.bXbXbXbXbXbXbXbXbXbXbXbXbXbXbXbXbXbXbXbXbXbXbXbXbXbXbXbXbXbX",
"bXbXbXbXbXbXbXbXbXbXbXbXbXbXbXbXbXbXbXbXbXbXbXbXbXbXbXbXbXbXM.Y U.! bXbXbXbXbXbXbXbXbXbXbXbXbXbXbXbXbXbXbXbXbXbXbXbXbXbXbXbXbXbX",
"bXbXbXbXbXbXbXbXbXbXbXbXbXbXbXbXbXbXbXbXbXbXbXbXbXbXbXbXbXbXk Y U.' bXbXbXbXbXbXbXbXbXbXbXbXbXbXbXbXbXbXbXbXbXbXbXbXbXbXbXbXbXbX",
"bXbXbXbXbXbXbXbXbXbXbXbXbXbXbXbXbXbXbXbXbXbXbXbXbXbXbXbXbXbXz Y `.| Z.bXbXbXbXbXbXbXbXbXbXbXbXbXbXbXbXbXbXbXbXbXbXbXbXbXbXbXbXbX",
"bXbXbXbXbXbXbXbXbXbXbXbXbXbXbXbXbXbXbXbXbXbXbXbXbXbXbXbXbXc.p ! `.#.J.bXbXbXbXbXbXbXbXbXbXbXbXbXbXbXbXbXbXbXbXbXbXbXbXbXbXbXbXbX",
"bXbXbXbXbXbXbXbXbXbXbXbXbXbXbXbXbXbXbXbXbXbXbXbXbXbXbXbXbXv.m ~ (.5.p.`.bXbXbXbXbXbXbXbXbXbXbXbXbXbXbXbXbXbXbXbXbXbXbXbXbXbXbXbX",
"bXbXbXbXbXbXbXbXbXbXbXbXbXbXbXbXbXbXbXbXbXbXbXbXbXbXbXbXbXJ m E $Xr.a.Y.bXbXbXbXbXbXbXbXbXbXbXbXbXbXbXbXbXbXbXbXbXbXbXbXbXbXbXbX",
"bXbXbXbXbXbXbXbXbXbXbXbXbXbXbXbXbXbXbXbXbXbXbXbXbXbXbXbXl.` V t.+XR.Q.Q.bXbXbXbXbXbXbXbXbXbXbXbXbXbXbXbXbXbXbXbXbXbXbXbXbXbXbXbX",
"bXbXbXbXbXbXbXbXbXbXbXbXbXbXbXbXbXbXbXbXbXbXbXbXbXbXbXbX~ ` [ t.+XQ.|. X{.bXbXbXbXbXbXbXbXbXbXbXbXbXbXbXbXbXbXbXbXbXbXbXbXbXbXbX",
"bXbXbXbXbXbXbXbXbXbXbXbXbXbXbXbXbXbXbXbXbXbXbXbXbXbXbXx.@.+.o.9.+X|.oX X(.bXbXbXbXbXbXbXbXbXbXbXbXbXbXbXbXbXbXbXbXbXbXbXbXbXbXbX",
"bXbXbXbXbXbXbXbXbXbXbXbXbXbXbXbXbXbXbXbXbXbXbXbXbXbXbXA.] :.O.q.+X|.|.|. XbXbXbXbXbXbXbXbXbXbXbXbXbXbXbXbXbXbXbXbXbXbXbXbXbXbXbX",
"bXbXbXbXbXbXbXbXbXbXbXbXbXbXbXbXbXbXbXbXbXbXbXbXbXbXbX>.{ :.4.q.@X|.|.Q.f.`.bXbXbXbXbXbXbXbXbXbXbXbXbXbXbXbXbXbXbXbXbXbXbXbXbXbX",
"bXbXbXbXbXbXbXbXbXbXbXbXbXbXbXbXbXbXbXbXbXbXbXbXbXbXN.' :.4.6.r.+X XR.R.6.e.bXbXbXbXbXbXbXbXbXbXbXbXbXbXbXbXbXbXbXbXbXbXbXbXbXbX",
"bXbXbXbXbXbXbXbXbXbXbXbXbXbXbXbXbXbXbXbXbXbXbXbXbXbXQ ` +.%.6.r.oX|.a.y.-.| '.bXbXbXbXbXbXbXbXbXbXbXbXbXbXbXbXbXbXbXbXbXbXbXbXbX",
"bXbXbXbXbXbXbXbXbXbXbXbXbXbXbXbXbXbXbXbXbXbXbXbXbX9XN / { $.&.p.}.a.u.-.@. .A.bXbXbXbXbXbXbXbXbXbXbXbXbXbXbXbXbXbXbXbXbXbXbXbXbX",
"bXbXbXbXbXbXbXbXbXbXbXbXbXbXbXbXbXbXbXbXbXbXbXbXbXM.a ..' | &.a.}.a.&.#.' _ ) bXbXbXbXbXbXbXbXbXbXbXbXbXbXbXbXbXbXbXbXbXbXbXbXbX",
"bXbXbXbXbXbXbXbXbXbXbXbXbXbXbXbXbXbXbXbXbXbXbXbXbXk a ) `  .#.i.}.u.#. .( ) ( C.bXbXbXbXbXbXbXbXbXbXbXbXbXbXbXbXbXbXbXbXbXbXbXbX",
"bXbXbXbXbXbXbXbXbXbXbXbXbXbXbXbXbXbXbXbXbXbXbXbXN.a a N ' ' #.y.R.u.] ] / A N Q bXbXbXbXbXbXbXbXbXbXbXbXbXbXbXbXbXbXbXbXbXbXbXbX",
"bXbXbXbXbXbXbXbXbXbXbXbXbXbXbXbXbXbXbXbXbXbXbXbXG M A N /  .| y.!.-.| ` / N N / ).bXbXbXbXbXbXbXbXbXbXbXbXbXbXbXbXbXbXbXbXbXbXbX",
"bXbXbXbXbXbXbXbXI.I.[.[.a.f.1X4XpXgXzXjXjXjXlXkX:.p A N _ ' | y.a.-.] ` / N F ( ,XlXjXjXzXgXgX4X1X>XbX~.{.bXbXbXbXbXbXbXbXbXbXbX",
"bXl.) +.3.| *.*.=.=.d.g.%X*X2XuXfXlXxXxXxXxXlXxXyX_ ) N _ [  .6.p.$.' / _ F ( L.kXxXxXxXxXxXfXdXuX2X2X%Xg.h.;.=.-.@.' 3.2.o.K N.",
"bXbXz.a ) 6.s.XX.X%X&X&X2X3XuXiXfXkXlXlXlXlXlXlXlX;X_ U _ ` ' y.p.$.' _ A ` 7.gXlXlXlXlXlXlXkXfXdXiX3X2X1X&X.X.Xg.f.u.&._ K N.bX",
"bXbXbXm.6 6 Y 9.$X4XuXiXiXdXdXgXkXlXlXlXlXlXlXlXlXkXF.( ..( ' 6.w.#.' ) .. .yXlXlXlXlXlXlXlXlXkXfXdXdXdXiXiX3X1X+X8.P e b 7XbXbX",
"bXbXbXbX6Xk 1 - : P U.,XgXkXlXlXlXkXlXlXlXxXxXlXlXlXsX] ( X. .7.0.| ' o. .;XlXlXlXlXxXlXlXlXkXjXkXkXkXfXyX=Xb.s : - 1 b bXbXbXbX",
"bXbXbXbXbXbXb e q ; . ; P U.eXgXlXxXxXlXlXxXlXlXlXlXxX,X( X.' 7.0.| X.( E.kXlXlXlXlXxXlXlXlXxXxXlXgX=XP.w = . ; 5 t z.bXbXbXbXbX",
"bXbXbXbXbXbXbXz.6 7 f < + X , W _.aXkXxXxXxXlXxXlXlXlXlXY.( } 7.0.{ ( %.sXlXlXlXlXxXlXxXcXxXzXeXP.w =   + 4 f 5 s m.bXbXbXbXbXbX",
"bXbXbXbXbXbXbXbX5X6 1 9 9 2 O X X 3 v.wXhXxXcXxXxXlXlXxXgX0.( 7.0.'  .eXxXlXlXlXxXxXcXlXrX_.g =   o * 9 9 4 5 l 9XbXbXbXbXbXbXbX",
"bXbXbXbXbXbXbXbXbX6Xf , < > < * $ O X . 3 c.qXzXcXxXxXxXxXeX .4.q. .(.lXxXlXxXcXcXvX].W @   o @ & 2 < < , 5 c bXbXbXbXbXbXbXbXbX",
"bXbXbXbXbXbXbXbXbXbXbXc : @ $ @ @ $ % % @ . + g V.aXzXcXxXxX;X#.5.y.jXxXxXxXvXwXv.;   + @ % % $ @ @ ; @ 5 m.bXbXbXbXbXbXbXbXbXbX",
"bXbXbXbXbXbXbXbXbXbXbXbXv @ @ * @ @ # # # 4 0 3 = > W ].rXxXlXoX7.sXxXvXqXb.7 = ; 4 9 < # # @ @ $ @ @ d 5XbXbXbXbXbXbXbXbXbXbXbX",
"bXbXbXbXbXbXbXbXbXbXbXbXbXB.d o * @ @ # # 3 3 7 s S y 8 r j.wX_.Y qXV.S e r u w w 3 3 # # # @ * @ @ x bXbXbXbXbXbXbXbXbXbXbXbXbX",
"bXbXbXbXbXbXbXbXbXbXbXbXbXbXbXh @ $ @ # 3 3 7 7 8 8 w P P 8 t s j t r s P w 8 8 7 7 3 > # @ & @ > n bXbXbXbXbXbXbXbXbXbXbXbXbXbX",
"bXbXbXbXbXbXbXbXbXbXbXbXbXbXbXbXx @ @ % # # @ @ > 0 j Y ~ e.W.1.,.G.K.1.~ P q 4 @ @ # < # & O & 5XbXbXbXbXbXbXbXbXbXbXbXbXbXbXbX",
"bXbXbXbXbXbXbXbXbXbXbXbXbXbXbXbXbXn.@ o o % q P ~ ,.:.O.] 0.9.C m E w.%.O.:.t.~ ! g % o o X x 8XbXbXbXbXbXbXbXbXbXbXbXbXbXbXbXbX",
"bXbXbXbXbXbXbXbXbXbXbXbXbXbXbXbXbXbXc 8 P ,.,.o.L ` ` ` 6.8.D m m B 1.r.] ` ` [ O.>.t.~ j g bXbXbXbXbXbXbXbXbXbXbXbXbXbXbXbXbXbX",
"bXbXbXbXbXbXbXbXbXbXbXbXbXbXbXbXbXbXM.] F B N V V ` ` %.J.I m m i B C 8.r.] { ` V V V o.+.Z.bXbXbXbXbXbXbXbXbXbXbXbXbXbXbXbXbXbX",
"bXbXbXbXbXbXbXbXbXbXbXbXbXbXbXbXbXbXj.M y M B V ` ` &.T.E m Z m r Z M G q.6.{ { ` V V N N H bXbXbXbXbXbXbXbXbXbXbXbXbXbXbXbXbXbX",
"bXbXbXbXbXbXbXbXbXbXbXbXbXbXbXbXbXbXP M A V ` ` { &.w.2.t C Z y r Z Z m Y L.6.@.+.{ ` [ ( { bXbXbXbXbXbXbXbXbXbXbXbXbXbXbXbXbXbX",
"bXbXbXbXbXbXbXbXbXbXbXbXbXbXbXbXbXbXL V [ } +.4.%.T.D.t M Z Z y r D D B y <.E.6.7.4.%.O.:.#.P.bXbXbXbXbXbXbXbXbXbXbXbXbXbXbXbXbX",
"bXbXbXbXbXbXbXbXbXbXbXbXbXbXbXbXbX).' :.4.5.7.0.p.F.s t M D H u r H D C y t 8.Q.i.0.0.0.0.0.G.bXbXbXbXbXbXbXbXbXbXbXbXbXbXbXbXbX",
"bXbXbXbXbXbXbXbXbXbXbXbXbXbXbXbXbXS.5.e.q.w.w.R.E.T e u M H U y r H U Z p r i G.}.T.T.T.E.E./.bXbXbXbXbXbXbXbXbXbXbXbXbXbXbXbXbX",
"bXbXbXbXbXbXbXbXbXbXbXbXbXbXbXbXbXF.F.F.E.T.Q./.E e r r m I U i r I R D r r 6 G W./.Q.Q././.#XtXbXbXbXbXbXbXbXbXbXbXbXbXbXbXbXbX",
"bXbXbXbXbXbXbXbXbXbXbXbXbXbXbXbX'.!.E.E.E.Q./.2.r r r 8 y U E K y U E Z r 8 r r ~ /.@XoX/.OX#X[.bXbXbXbXbXbXbXbXbXbXbXbXbXbXbXbX",
"bXbXbXbXbXbXbXbXbXbXbXbXbXbXbXbXI.Q.E.^./.@XD.u r r r m H ~ <.M m E ~ Y y r i r t 1.@X@XOXOX@XOXbXbXbXbXbXbXbXbXbXbXbXbXbXbXbXbX",
"bXbXbXbXbXbXbXbXbXbXbXbXbXbXbXbXH.E.E./.#XG.G y y m m H ~ ~ 8.x.k.8.9.~ U m y y t u D.@X:XOX:X:XbXbXbXbXbXbXbXbXbXbXbXbXbXbXbXbX",
"bXbXbXbXbXbXbXbXbXbXbXbXbXbXbX0XQ.W./.@XL.I y m M M I E t.P.).bXbXbXA.8.E I M m p y z G.:X@X@X>X;XbXbXbXbXbXbXbXbXbXbXbXbXbXbXbX",
"bXbXbXbXbXbXbXbXbXbXbXbXbXbXbXH.Q.W.oX^.! p M M C H J 8.).bXbXbXbXbXbX).S.,.U Z M M p T ^.:X@X#X;XbXbXbXbXbXbXbXbXbXbXbXbXbXbXbX",
"bXbXbXbXbXbXbXbXbXbXbXbXbXbXbXH.T.W./.1.u p M K H X.P.'.bXbXbXbXbXbXbXbXbXA.:.H D N M y ~ /.@X@X:XbXbXbXbXbXbXbXbXbXbXbXbXbXbXbX",
"bXbXbXbXbXbXbXbXbXbXbXbXbXbXbXL.K./.2.s y M K V o.).bXbXbXbXbXbXbXbXbXbXbXbX).1.V D M p s 2.OXOX#X<XbXbXbXbXbXbXbXbXbXbXbXbXbXbX",
"bXbXbXbXbXbXbXbXbXbXbXbXbXbX).i.F.8.s i m N V ^ '.bXbXbXbXbXbXbXbXbXbXbXbXbXbXbXl.` B m t s D.oX#X(.bXbXbXbXbXbXbXbXbXbXbXbXbXbX",
"bXbXbXbXbXbXbXbXbXbXbXbXbXbXZ.5.e.s u y m J x.bXbXbXbXbXbXbXbXbXbXbXbXbXbXbXbXbXbXM.R M u r s F.Q.H.bXbXbXbXbXbXbXbXbXbXbXbXbXbX",
"bXbXbXbXbXbXbXbXbXbXbXbXbXbXl.O.Y w m B Q '.bXbXbXbXbXbXbXbXbXbXbXbXbXbXbXbXbXbXbXbX0XQ V y i I e.F.bXbXbXbXbXbXbXbXbXbXbXbXbXbX",
"bXbXbXbXbXbXbXbXbXbXbXbXbXbX,.H s M R x.bXbXbXbXbXbXbXbXbXbXbXbXbXbXbXbXbXbXbXbXbXbXbXbXc.~ m s T 0.Z.bXbXbXbXbXbXbXbXbXbXbXbXbX",
"bXbXbXbXbXbXbXbXbXbXbXbXbXx.Z t V x.0XbXbXbXbXbXbXbXbXbXbXbXbXbXbXbXbXbXbXbXbXbXbXbXbXbXbXbXl.V r J A.bXbXbXbXbXbXbXbXbXbXbXbXbX",
"bXbXbXbXbXbXbXbXbXbXbXbXbXv.a Z.'.bXbXbXbXbXbXbXbXbXbXbXbXbXbXbXbXbXbXbXbXbXbXbXbXbXbXbXbXbXbX'.Z.M ! bXbXbXbXbXbXbXbXbXbXbXbXbX",
"bXbXbXbXbXbXbXbXbXbXbXbXbX! l.bXbXbXbXbXbXbXbXbXbXbXbXbXbXbXbXbXbXbXbXbXbXbXbXbXbXbXbXbXbXbXbXbXbXl.F bXbXbXbXbXbXbXbXbXbXbXbXbX",
"bXbXbXbXbXbXbXbXbXbXbXbXM.C.bXbXbXbXbXbXbXbXbXbXbXbXbXbXbXbXbXbXbXbXbXbXbXbXbXbXbXbXbXbXbXbXbXbXbXbX'.M.bXbXbXbXbXbXbXbXbXbXbXbX",
"bXbXbXbXbXbXbXbXbXbXbXbXbXbXbXbXbXbXbXbXbXbXbXbXbXbXbXbXbXbXbXbXbXbXbXbXbXbXbXbXbXbXbXbXbXbXbXbXbXbXbXbXbXbXbXbXbXbXbXbXbXbXbXbX"
};
