/* XPM */
static char *result[] = {
/* columns rows colors chars-per-pixel */
"64 64 235 2 ",
"   c #660001",
".  c #732200",
"X  c #61273A",
"o  c #7A4433",
"O  c #392848",
"+  c #7E6978",
"@  c #99361B",
"#  c #A53C00",
"$  c #9A460E",
"%  c #B85900",
"&  c #BC5F1A",
"*  c #B05209",
"=  c #BA7804",
"-  c #BA6415",
";  c #B06C00",
":  c #985726",
">  c #914A36",
",  c #A95935",
"<  c #B76235",
"1  c #B77738",
"2  c #AD7533",
"3  c #C65A04",
"4  c #CD570A",
"5  c #CB6B02",
"6  c #C76509",
"7  c #D46708",
"8  c #CB7907",
"9  c #DB7500",
"0  c #DB7D01",
"q  c #DC7B0F",
"w  c #D67602",
"e  c #CC6415",
"r  c #CC6C13",
"t  c #C86719",
"y  c #CD7212",
"u  c #C57418",
"i  c #D47B14",
"p  c #D87716",
"a  c #D16919",
"s  c #E67602",
"d  c #C7772A",
"f  c #D37523",
"g  c #CA7A33",
"h  c #CA6623",
"j  c #904E47",
"k  c #B95758",
"l  c #B65E43",
"z  c #AB7450",
"x  c #92706A",
"c  c #C76A4B",
"v  c #BD8C05",
"b  c #AF8907",
"n  c #B58E2C",
"m  c #DE8200",
"M  c #DD8B0E",
"N  c #DC8C02",
"B  c #DC9502",
"V  c #D79907",
"C  c #DC8415",
"Z  c #D68619",
"A  c #DD9314",
"S  c #D99819",
"D  c #C89710",
"F  c #E48C00",
"G  c #E38A0C",
"H  c #E68703",
"J  c #F18B07",
"K  c #E29100",
"L  c #EB9401",
"P  c #E39D00",
"I  c #E99A01",
"U  c #EC930A",
"Y  c #E89C0C",
"T  c #F39B01",
"R  c #F59803",
"E  c #E58916",
"W  c #E19412",
"Q  c #E49B15",
"!  c #EA9C11",
"~  c #E4941B",
"^  c #EA941B",
"/  c #E39C1A",
"(  c #EA9216",
")  c #DDA51D",
"_  c #DEAC0C",
"`  c #E1A400",
"'  c #EAA300",
"]  c #EBAB01",
"[  c #ECA60D",
"{  c #E6AB09",
"}  c #FBAB00",
"|  c #F2A50C",
" . c #F2AC0C",
".. c #F3A702",
"X. c #EDB400",
"o. c #E5B100",
"O. c #F3B400",
"+. c #F3BB03",
"@. c #F5B50B",
"#. c #F8B907",
"$. c #EDA214",
"%. c #EBA41D",
"&. c #EBAC1C",
"*. c #EAAB18",
"=. c #F4AC16",
"-. c #EDBA1A",
";. c #F2BE1B",
":. c #F7B817",
">. c #C68829",
",. c #D88725",
"<. c #DC9424",
"1. c #DA9929",
"2. c #C78E38",
"3. c #CC9C3E",
"4. c #C9933A",
"5. c #D59C3A",
"6. c #D6803C",
"7. c #E48A28",
"8. c #E49D24",
"9. c #E89829",
"0. c #D8A227",
"q. c #CBA136",
"w. c #D8AF2B",
"e. c #EAAB25",
"r. c #E4AB2B",
"t. c #E7A527",
"y. c #F2A927",
"u. c #EDB92C",
"i. c #EBB42A",
"p. c #F3B82A",
"a. c #EAA934",
"s. c #E9B635",
"d. c #F4B936",
"f. c #F7A239",
"g. c #F4C400",
"h. c #F9C200",
"j. c #FACB0C",
"k. c #F7C508",
"l. c #FCD403",
"z. c #F5C415",
"x. c #F5CA14",
"c. c #FBC41A",
"v. c #F6C51B",
"b. c #FAD917",
"n. c #ECC713",
"m. c #FAE717",
"M. c #EDC12E",
"N. c #F1C32C",
"B. c #FBC928",
"V. c #FCD32A",
"C. c #F8D426",
"Z. c #F9CA35",
"A. c #FED231",
"S. c #EEC230",
"D. c #FBE428",
"F. c #BA8646",
"G. c #B29345",
"H. c #B99356",
"J. c #A18456",
"K. c #AA8865",
"L. c #BC8A67",
"P. c #BB9768",
"I. c #B49878",
"U. c #AB8776",
"Y. c #BEA169",
"T. c #B7A073",
"R. c #C68847",
"E. c #C89445",
"W. c #D59D48",
"Q. c #D08E53",
"!. c #E09743",
"~. c #E59F53",
"^. c #CFA34B",
"/. c #D5A344",
"(. c #D9A44D",
"). c #C9A558",
"_. c #D8A755",
"`. c #D8B15C",
"'. c #D8B244",
"]. c #E7B153",
"[. c #CA956E",
"{. c #E49D6A",
"}. c #C8A166",
"|. c #D5AA67",
" X c #C8A57A",
".X c #D5B36F",
"XX c #F1A866",
"oX c #FBDA50",
"OX c #EFC066",
"+X c #797689",
"@X c #927A82",
"#X c #A07F89",
"$X c #98919E",
"%X c #A9968D",
"&X c #B89885",
"*X c #A49895",
"=X c #B69A97",
"-X c #AE888E",
";X c #BBAAA5",
":X c #B5A8AE",
">X c #B4ADAF",
",X c #C69785",
"<X c #C79C95",
"1X c #D69A91",
"2X c #C8AB8C",
"3X c #C3A498",
"4X c #D9AB95",
"5X c #CCAC95",
"6X c #E5B28D",
"7X c #C7ABA7",
"8X c #C2B5A6",
"9X c #D6B7A1",
"0X c #D8BBA5",
"qX c #C2B5B2",
"wX c #CABAB3",
"eX c #C4BCBB",
"rX c #D6BEBA",
"tX c #C2AFB2",
"yX c #DBC4B8",
"uX c #E2C6BB",
"iX c #BFB9C5",
"pX c #C2BFC0",
"aX c #BEC1CB",
"sX c #CBC7C7",
"dX c #D9CAC6",
"fX c #DBD5D4",
"gX c #D3D2D3",
"hX c #C7CBD9",
"jX c #E6D4C8",
"kX c #E4D9D6",
"lX c #D9D7E4",
"zX c #CDCFE0",
"xX c #E9DFE4",
"cX c #EDEAEA",
"vX c None",
/* pixels */
"vXvXvXvXvXvXvXvXvXvXvXvXvXvXvXvXvXvXvXvXvXvXvXvXvXvXvXvXvXvXvXvXvXvXvXvXvXvXvXvXvXvXvXvXvXvXvXvXvXvXvXvXvXvXvXvXvXvXvXvXvXvXvXvX",
"vXvXvXvXvXvXvXvXvXvXvXvXvXvXvXvXvXvXvXvXvXvXvXvXvXvXvXvXvXvXvXvXvXvXvXvXvXvXvXvXvXvXvXvXvXvXvXvXvXvXvXvXvXvXvXvXvXvXvXvXvXvXvXvX",
"vXvXvXvXvXvXvXvXvXvXvXvXvXvXvXvXvXvXvXvXvXvXvXvXvXvXvXvXvXvXvXvXvXvXvXvXvXvXvXvXvXvXvXvXvXvXvXvXvXvXvXvXvXvXvXvXvXvXvXvXvXvXvXvX",
"vXvXvXvXvXvXvXvXvXvXvXvXvXvXvXvXvXvXvXvXvXvXvXvXvXvXvXvXvXvXvXvXvXvXvXvXvXvXvXvXvXvXvXvXvXvXvXvXvXvXvXvXvXvXvXvXvXvXvXvXvXvXvXvX",
"vXvXvXvXvXvXvXvXvXvXvXvXvXvXvXvXvXvXvXvXvXvXvXvXvXvXvXvXvXvXvXvXvXvXvXvXvXvXvXvXvXvXvXvXvXvXvXvXvXvXvXvXvXvXvXvXvXvXvXvXvXvXvXvX",
"vXvXvXvXvXvXvXvXvXvXvXvXvXvXvXvXvXvXvXvXvXvXvXvXvXvXvXvXvXvXvXvXvXvXvXvXvXvXvXvXvXvXvXvXvXvXvXvXvXvXvXvXvXvXvXvXvXvXvXvXvXvXvXvX",
"vXvXvXvXvXvXvXvXvXvXvXvXvXvXvXvXvXvXvXvXvXvXvXvXvXvXvXvXvXvXvXvXvXvXvXvXvXvXvXvXvXvXvXvXvXvXvXvXvXvXvXvXvXvXvXvXvXvXvXvXvXvXvXvX",
"vXvXvXvXvXvXvXvXvXvXvXvXvXvXvXvXvXvXvXvXvXvXvXvXvXvXvXvXvXvXvXvXvXvXvXvXvXvXvXvXvXvXvXvXvXvXvXvXvXvXvXvXvXvXvXvXvXvXvXvXvXvXvXvX",
"vXvXvXvXvXvXvXvXvXvXvXvXvXvXvXvXvXvXvXvXvXvXvXvXvXvXvXvXvXvXvXvXvXvXvXvXvXvXvXvXvXvXvXvXvXvXvXvXvXvXvXvXvXvXvXvXvXvXvXvXvXvXvXvX",
"vXvXvXvXvXvXvXvXvXvXvXvXvXvXvXvXvXvXkXvXvXvXuXdXvX2XvXvXvXvX4X0XyX;XvXvXvXvXvXvXvXvXvXvXvXvXvXvXvXvXvXvXvXvXvXvXvXvXvXvXvXvXvXvX",
"vXvXvXvXvXvXvXvXvXvXvXvXvXvXvXvXvXfXdXsXcXdXf !.f.9.> :XdX4 w ` ..`.jXxXvXvXvX@Xj <XvXvXvXvXvXvXvXvXvXvXvXvXvXvXvXvXvXvXvXvXvXvX",
"vXvXvXvXvXvXvXvXvXvXvXvXvXvXvXvXsX<Xc 3 XXH I O...$.I a.R.L 9.,.<.' y.{.Q.L.U.: # 9 !.3XsXvXvXvXvXvXvXvXvXvXvXvXvXvXvXvXvXvXvXvX",
"vXvXvXvXvXvXvXvXvXvXvXvXvXvXvXvXG.+.s 9.R $.t.~ ;.:.1.Y O.r./ ;.;.^ K O.T R L ^ y.d.:.l.T.vXvXvXvXvXvXvXvXvXvXvXvXvXvXvXvXvXvXvX",
"vXvXvXvXvXvXvXvXvXvXvXvXvXvXvXvX&X.X].m a.y.H @.j.( ! ! ^ f a / *.f f 7.8.t.8.,.( G =.c.).vXvXvXvXvXvXvXvXvXvXvXvXvXvXvXvXvXvXvX",
"vXvXvXvXvXvXvXvXvXvXvXvXvXvXvXvXvXvXkXk s A.p. .i q ! :.@.I =.s.e.I ' ^ <.K ' ' ] ,.$.l.}.vXvXvXvXvXvXvXvXvXvXvXvXvXvXvXvXvXvXvX",
"vXvXvXvXvXvXvXvXvXvXvXvXvXvXvXvXvXvXvXvXk s.e.4 y U i.g._.7XT F C < : f f 9X6X4XP.o.7.{ ).vXvXvXvXvXvXvXvXvXvXvXvXvXvXvXvXvXvXvX",
"vXvXvXvXvXvXvXvXvXvXvXvXvXvXvXvXvXvXvXvXaX(.&.y  .i M.e.* yX9X5.|.tXfXx o gXvXvXzXI.] 8.'.vXvXvXvXvXvXvXvXvXvXvXvXvXvXvXvXvXvXvX",
"vXvXvXvXvXvXvXvXvXvXvXvXvXvXvXvXvXvXvXvX  S d.W W C u.>.# :XvXvXvXwXvXvXvXvXvXvXvX>X0.G ^.vXvXvXvXvXvXvXvXvXvXvXvXvXvXvXvXvXvXvX",
"vXvXvXvXvXvXvXvXvXvXvXvXvXvXvXvXvXvXvXqX@X) t.t - 6 N.>.% U.fXvXvXvXvXvXvXvXvXvXvXvX).K E.vXvXvXvXvXvXvXvXvXvXvXvXvXvXvXvXvXvXvX",
"vXvXvXvXvXvXvXvXvXvXvXvXvXvXvXvXvXvXfXvXlX5.8.e C M Z.K # : sXvXvXvXvXvXvXvXvXvXvXvXI.0 R.vXvXvXvXvXvXvXvXvXvXvXvXvXvXvXvXvXvXvX",
"vXvXvXvXvXvXvXvXvXvXvXvXvXvXvXvXvXvXvXvXpXR.S e | ~ i.W.>X*XqXvXvXvXvXvXvXvXvXvXvXvXvX5XtXvXvXvXvXvXvXvXvXvXvXvXvXvXvXvXvXvXvXvX",
"vXvXvXvXvXvXvXvXvXvXvXvXvXvXvXvXvXvXvXvXx v s.4 ( ^ h.6XvXvXxXvXvXvXvXvXvXvXvXvXvXvXvXvXvXvXvXvXvXvXvXvXvXvXvXvXvXvXvXvXvXvXvXvX",
"vXvXvXvXvXvXvXvXvXvXvXvXvXvXvXvXvXvXvXvX+ >.i.4 ( p g.}.vXvXvXvXvXvXvXvXvXvXvX7X* 8XvXvXvXvXvXvXvXvXvXvXvXvXvXvXvXvXvXvXvXvXvXvX",
"vXvXvXvXvXvXvXvXvXvXvXvXvXvXvXvXvXvXvXvXvX.X' q % e u.J.vXvXvXvXvXvXvXvXvXvXvXF.I ).vXvXvXvXvXvXvXvXvXvXvXvXvXvXvXvXvXvXvXvXvXvX",
"vXvXvXvXvXvXvXvXvXvXvXvXvXvXvXvXvXvXvXvX>Xn 1.7 6 a #.I.vXvXjXvXvXvXvXvXkXcXsXV i.H.vXvXvXvXvXvXvXvXvXvXvXvXvXvXvXvXvXvXvXvXvXvX",
"vXvXvXvXvXvXvXvXvXvXvXvXvXvXvXvXvXvXvXvXO ; s.w J p v.K.vX~.7.,.|.1 x 9X2 3XXX_ V }.vXvXvXvXvXvXvXvXvXvXvXvXvXvXvXvXvXvXvXvXvXvX",
"vXvXvXvXvXvXvXvXvXvXvXvXvXvXvXvXvXvXvXvX+Xb B.J J q u.u.a.R 0 8 R 6 $ % = 6 K ,.V T.vXvXvXvXvXvXvXvXvXvXvXvXvXvXvXvXvXvXvXvXvXvX",
"vXvXvXvXvXvXvXvXvXvXvXvXvXvXvXvXvXvXvXvXvX].b. .| U C.b.#.%.8.*.c.-.>.0.! 7.Z u &.P.vXvXvXvXvXvXvXvXvXvXvXvXvXvXvXvXvXvXvXvXvXvX",
"vXvXvXvXvXvXvXvXvXvXvXvXvXvXvXvXvXvXvXvXvXoXb.| | #.j.x.*.C C :.' v.t.$.C 7 y - { Y.vXvXvXvXvXvXvXvXvXvXvXvXvXvXvXvXvXvXvXvXvXvX",
"vXvXvXvXvXvXvXvXvXvXvXvXvXvXvXvXvXvXvXvXvXZ.C. . . .z.#.E  .c.x.d.' ` e.i.1.h h o. XvXvXvXvXvXvXvXvXvXvXvXvXvXvXvXvXvXvXvXvXvXvX",
"vXvXvXvXvXvXvXvXvXvXvXvXvXvXvXvXvXvXvXvXvXoXl.! A  .z.j. .S Z ,.# L.,X* = B x.e.c.H.vXvXvXvXvXvXvXvXvXvXvXvXvXvXvXvXvXvXvXvXvXvX",
"vXvXvXvXvXvXvXvXvXvXvXvXvXvXvXvXvXvXvXvX&X:.V.6 e J B.w.* Z - ; %XaXfX=X%XdX].l.B.G.vXvXvXvXvXvXvXvXvXvXvXvXvXvXvXvXvXvXvXvXvXvX",
"vXvXvXvXvXvXvXvXvXvXvXvXvXvXvXvXvXvXvXvX,XO.Z.6 u @.V.8.& = ,Xz vXvXvXvXvXvX-XS @.Y.vXvXvXvXvXvXvXvXvXvXvXvXvXvXvXvXvXvXvXvXvXvX",
"vXvXvXvXvXvXvXvXvXvXvXvXvXvXvXvXvXvXvXvX[.B.u.s @.v.V.t.% 8 8XvXvXvXvXvXvXvXvXH.` H.vXvXvXvXvXvXvXvXvXvXvXvXvXvXvXvXvXvXvXvXvXvX",
"vXvXvXvXvXvXvXvXvXvXvXvXvXvXvXvXvXvXvXvXvXp.B.T [ Y V.v X 0XvXvXvXvXvXvXvXvXvXI.s L.vXvXvXvXvXvXvXvXvXvXvXvXvXvXvXvXvXvXvXvXvXvX",
"vXvXvXvXvXvXvXvXvXvXvXvXvXvXvXvXvXvXvXvX{.B.V.#.[ G d.= + vXvXvXvXvXvXvXvXvXvXyXL.=XvXvXvXvXvXvXvXvXvXvXvXvXvXvXvXvXvXvXvXvXvXvX",
"vXvXvXvXvXvXvXvXvXvXvXvXvXvXvXvXvXvXvXvXl 0.u.Y j.~ +.}.sXvXvXvXvXvXvXvXvXvXvXvXvXvXvXvXvXvXvXvXvXvXvXvXvXvXvXvXvXvXvXvXvXvXvXvX",
"vXvXvXvXvXvXvXvXvXvXvXvXvXvXvXvXvXvXvXvX@ D i.y S Q p.F.$XvXvXvXvXvXvXvXvXvXvXvXvXvXvXvXvXvX*XvXvXvXvXvXvXvXvXvXvXvXvXvXvXvXvXvX",
"vXvXvXvXvXvXvXvXvXvXvXvXvXvXvXvXvXvXvXvXx s.e.y C G Z.D , vXvXvXvXvXvXvXvXvXvXvXvXvXvXvXfXl ] ;XvXvXvXvXvXvXvXvXvXvXvXvXvXvXvXvX",
"vXvXvXvXvXvXvXvXvXvXvXvXvXvXvXvXvXvXvXvX1Xi.r.7 y.i u.v > vXvXvXvXvXvXvXvXvXvXvXvXvXvXvX&XB S *XvXvXvXvXvXvXvXvXvXvXvXvXvXvXvXvX",
"vXvXvXvXvXvXvXvXvXvXvXvXvXvXvXvXvXvXvXjX< V A.G Z E u.n . vXvXvXvXvXvXvXvXvXvXvXvXvXvX-XB B |.vXvXvXvXvXvXvXvXvXvXvXvXvXvXvXvXvX",
"vXvXvXvXvXvXvXvXvXvXvXvXvXvXvXvXvXvXvXdXj w.B.q y M s.B z vXvXvXvXwXvXvXvXvXvXvXvXvXhX).H P T.vXvXvXvXvXvXvXvXvXvXvXvXvXvXvXvXvX",
"vXvXvXvXvXvXvXvXvXvXvXvXvXvXvXvXvXvXvXvX0Xo.r.r i 8 s.S R.uXwX X(.3XsXvX=X*XvXvXvX>X[.K 9.s.pXvXvXvXvXvXvXvXvXvXvXvXvXvXvXvXvXvX",
"vXvXvXvXvXvXvXvXvXvXvXvXvXvXvXvXvXvXvXvX~.g.t.y Z 6 r.N.#.,.5 ..H g > Q.3 2 9X4X<Xg H t X.`.lXvXvXvXvXvXvXvXvXvXvXvXvXvXvXvXvXvX",
"vXvXvXvXvXvXvXvXvXvXvXvXvXvXvXvXvXvXvXrX] V.c.j.Q e %.D.m.n.9.8.S m w H d u 9 s s w E B.g.&XvXvXvXvXvXvXvXvXvXvXvXvXvXvXvXvXvXvX",
"vXvXvXvXvXvXvXvXvXvXvXvXvXvXvXvXqX3X1X^ $.^ s A -.$.Q x.b.B.v.;.;.t.7.<.%.t.y.C ( 7.Y c.s.vXvXvXvXvXvXvXvXvXvXvXvXvXvXvXvXvXvXvX",
"vXvXvXvXvXvXvXvXvXvXvXvXvXvXvXvXn } s L U R L e 5 ` G V X.g.h.k.@.O.9 T ..H M 0 H } } } w.vXvXvXvXvXvXvXvXvXvXvXvXvXvXvXvXvXvXvX",
"vXvXvXvXvXvXvXvXvXvXvXvXvXvXvXvX8X|.^.2.4./.W.4.E.R.E.3.E._.q.q.2.E.3.3.R.R.1 1 F.z E.d 8XvXvXvXvXvXvXvXvXvXvXvXvXvXvXvXvXvXvXvX",
"vXvXvXvXvXvXvXvXvXvXvXvXvXvXvXvXvXvXvXvXvXvXvXvXvXvXvXvXvXvXvXvXvXvXvXvXvXvXvXvXvXvXvXvXvXvXvXvXvXvXvXvXvXvXvXvXvXvXvXvXvXvXvXvX",
"vXvXvXvXvXvXvXvXvXvXvXvXvXvXvXvXvXvXvXvXvXvXvXvXvXvXvXvXvXvXvXvXvXvXvXvXvXvXvXvXvXvXvXvXvXvXvXvXvXvXvXvXvXvXvXvXvXvXvXvXvXvXvXvX",
"vXvXvXvXvXvXvXvXvXvXvXvXvXvXvXvXvXvXvXvXvXvXvXvXvXvXvXvXvXvXvXvXvXvXvXvXvXvXvXvXvXvXvXvXvXvXvXvXvXvXvXvXvXvXvXvXvXvXvXvXvXvXvXvX",
"vXvXvXvXvXvXvXvXvXvXvXvXvXvXvXvXvXvXvXvXvXvXvXvXvXvXvXvXvXvXvXvXvXvXvXvXvXvXvXvXvXvXvXvXvXvXvXvXvXvXvXvXvXvXvXvXvXvXvXvXvXvXvXvX",
"vXvXvXvXvXvXvXvXvXvXvXvXvXvXvXvXvXvXvXvXvXvXvXvXvXvXvXvXvXvXvXvXvXvXvXvXvXvXvXvXvXvXvXvXvXvXvXvXvXvXvXvXvXvXvXvXvXvXvXvXvXvXvXvX",
"vXvXvXvXvXvXvXvXvXvXvXvXvXvXvXvXvXvXvXvXvXvXvXvXvXvXvXvXvXvXvXvXvXvXvXvXvXvXvXvXvXvXvXvXvXvXvXvXvXvXvXvXvXvXvXvXvXvXvXvXvXvXvXvX",
"vXvXvXvXvXvXvXvXvXvXvXvXvXvXvXvXvXvXvXvXvXvXvXvXvXvXvXvXvXvXvXvXvXvXvXvXvXvXvXvXvXvXvXvXvXvXvXvXvXvXvXvXvXvXvXvXvXvXvXvXvXvXvXvX",
"vXvXvXvXvXvXvXvXvXvXvXvXvXvXvXvXvXvXvXvXvXvXvXvXvXvXvXvXvXvXvXvXvXvXvXvXvXvXvXvXvXvXvXvXvXvXvXvXvXvXvXvXvXvXvXvXvXvXvXvXvXvXvXvX",
"vXvXvXvXvXvXvXvXvXvXvXvXvXvXvXvXvXvXvXvXvXvXvXvXvXvXvXvXvXvXvXvXvXvXvXvXvXvXvXvXvXvXvXvXvXvXvXvXvXvXvXvXvXvXvXvXvXvXvXvXvXvXvXvX",
"vXvXvXvXvXvXvXvXvXvXvXvXvXvXvXvXvXvXvXvXvXvXvXvXvXvXvXvXvXvXvXvXvXvXvXvXvXvXvXvXvXvXvXvXvXvXvXvXvXvXvXvXvXvXvXvXvXvXvXvXvXvXvXvX",
"vXvXvXvXvXvXvXvXvXvXvXvXvXvXvXvXvXvXvXvXvXvXvXvXvXvXvXvXvXvXvXvXvXvXvXvXvXvXvXvXvXvXvXvXvXvXvXvXvXvXvXvXvXvXvXvXvXvXvXvXvXvXvXvX",
"vXvXvXvXvXvXvXvXvXvXvXvXvXvXvXvXvXvXvXvXvXvXvXvXvXvXvXvXvXvXvXvXvXvXvXvXvXvXvXvXvXvXvXvXvXvXvXvXvXvXvXvXvXvXvXvXvXvXvXvXvXvXvXvX",
"vXvXvXvXvXvXvXvXvXvXvXvXvXvXvXvXvXvXvXvXvXvXvXvXvXvXvXvXvXvXvXvXvXvXvXvXvXvXvXvXvXvXvXvXvXvXvXvXvXvXvXvXvXvXvXvXvXvXvXvXvXvXvXvX",
"vXvXvXvXvXvXvXvXvXvXvXvXvXvXvXvXvXvXvXvXvXvXvXvXvXvXvXvXvXvXvXvXvXvXvXvXvXvXvXvXvXvXvXvXvXvXvXvXvXvXvXvXvXvXvXvXvXvXvXvXvXvXvXvX",
"vXvXvXvXvXvXvXvXvXvXvXvXvXvXvXvXvXvXvXvXvXvXvXvXvXvXvXvXvXvXvXvXvXvXvXvXvXvXvXvXvXvXvXvXvXvXvXvXvXvXvXvXvXvXvXvXvXvXvXvXvXvXvXvX",
"vXvXvXvXvXvXvXvXvXvXvXvXvXvXvXvXvXvXvXvXvXvXvXvXvXvXvXvXvXvXvXvXvXvXvXvXvXvXvXvXvXvXvXvXvXvXvXvXvXvXvXvXvXvXvXvXvXvXvXvXvXvXvXvX"
};
