/* XPM */
static char *result[] = {
/* columns rows colors chars-per-pixel */
"57 64 228 2 ",
"   c #000019",
".  c black",
"X  c #3C0000",
"o  c #00002A",
"O  c #000024",
"+  c #00013D",
"@  c #000935",
"#  c #001737",
"$  c #03213C",
"%  c #45001D",
"&  c #6F2800",
"*  c #6D3935",
"=  c #5F2C2D",
"-  c #73412D",
";  c #000241",
":  c #000941",
">  c #001C45",
",  c #020055",
"<  c #170D48",
"1  c #280049",
"2  c #30164E",
"3  c #062A4C",
"4  c #1E2D44",
"5  c #192C4C",
"6  c #1E3151",
"7  c #133054",
"8  c #222F46",
"9  c #292C48",
"0  c #24334B",
"q  c #2A344A",
"w  c #283449",
"e  c #313A4E",
"r  c #372856",
"t  c #253654",
"y  c #273856",
"u  c #293956",
"i  c #2B3C59",
"p  c #293554",
"a  c #383A57",
"s  c #4A344D",
"d  c #56384A",
"f  c #432756",
"g  c #493656",
"h  c #543957",
"j  c #643E4A",
"k  c #3B465D",
"l  c #34435D",
"z  c #2C415B",
"x  c #3A4864",
"c  c #5D4352",
"v  c #4C4553",
"b  c #6D444B",
"n  c #784C4A",
"m  c #785446",
"M  c #694755",
"N  c #6C5959",
"B  c #75554F",
"V  c #786757",
"C  c #7D715C",
"Z  c #5A4C65",
"A  c #495569",
"S  c #565669",
"D  c #495C73",
"F  c #565371",
"G  c #675770",
"H  c #586477",
"J  c #696678",
"K  c #756678",
"L  c #6B616D",
"P  c #8E470E",
"I  c #B1690A",
"U  c #9B5C28",
"Y  c #8D543A",
"T  c #93593B",
"R  c #9C613B",
"E  c #BD752C",
"W  c #AB6A3B",
"Q  c #A66738",
"!  c #B26C3B",
"~  c #B6723A",
"^  c #BC753B",
"/  c #BD7A3C",
"(  c #B97536",
")  c #A96B2F",
"_  c #C47B35",
"`  c #C97E36",
"'  c #C47B3A",
"]  c #C37738",
"[  c #875547",
"{  c #885A54",
"}  c #965E43",
"|  c #986448",
" . c #896E59",
".. c #A66844",
"X. c #B46E42",
"o. c #B67643",
"O. c #A87652",
"+. c #8B7375",
"@. c #C17C41",
"#. c #BFA13F",
"$. c #B5953B",
"%. c #D88A00",
"&. c #CA8238",
"*. c #D88A39",
"=. c #D8923C",
"-. c #D98A29",
";. c #EC9B3C",
":. c #E69539",
">. c #F29F39",
",. c #C8A634",
"<. c #D7B233",
"1. c #FFAC29",
"2. c #FCA63B",
"3. c #FFAB3A",
"4. c #FAA538",
"5. c #FFB13C",
"6. c #E4BE31",
"7. c #E79418",
"8. c #FFDA2E",
"9. c #FDD836",
"0. c #FFE436",
"q. c #B58353",
"w. c #A79150",
"e. c #B7A55C",
"r. c #99875A",
"t. c #D68C42",
"y. c #CD914D",
"u. c #E89A43",
"i. c #F9A641",
"p. c #FFB349",
"a. c #FFB654",
"s. c #EDA450",
"d. c #DEAC78",
"f. c #E5A764",
"g. c #CAB65D",
"h. c #FADA45",
"j. c #F2CB58",
"k. c #FFEB56",
"l. c #FFE54E",
"z. c #FEC57D",
"x. c #0075A4",
"c. c #005592",
"v. c #59678D",
"b. c #5E769F",
"n. c #776C84",
"m. c #687284",
"M. c #787888",
"N. c #777A96",
"B. c #647291",
"V. c #5077A9",
"C. c #6B7EAA",
"Z. c #827585",
"A. c #83768D",
"S. c #847C8D",
"D. c #8A7A8A",
"F. c #8B7D92",
"G. c #867B91",
"H. c #7D8899",
"J. c #4F86B2",
"K. c #6095B4",
"L. c #689ACE",
"P. c #7FACE4",
"I. c #558DC5",
"U. c #858392",
"Y. c #8B8394",
"T. c #8B8A9B",
"R. c #948999",
"E. c #97939C",
"W. c #8C808B",
"Q. c #8A8BA1",
"!. c #9D8BA4",
"~. c #9B98A4",
"^. c #8E99B3",
"/. c #A193A2",
"(. c #A39BA5",
"). c #A69AAB",
"_. c #A99AA9",
"`. c #A89BB2",
"'. c #9CAAB6",
"]. c #ABA6AC",
"[. c #ACA5B2",
"{. c #ABAAB3",
"}. c #B2A4B3",
"|. c #B4ACB5",
" X c #B7ADBA",
".X c #B7B2BA",
"XX c #BAB4BC",
"oX c #BDBABE",
"OX c #BBB7B7",
"+X c #B5AAAF",
"@X c #BAADC1",
"#X c #ACB9C7",
"$X c #BCB4C2",
"%X c #BEBAC1",
"&X c #B1BAC6",
"*X c #C2BCC5",
"=X c #C3B7C2",
"-X c #B9C5CD",
";X c #8CC4FB",
":X c #96C9FD",
">X c #CAC4CB",
",X c #C8C5C8",
"<X c #C5CCD6",
"1X c #D1CCD2",
"2X c #D4CDD8",
"3X c #D4D1D5",
"4X c #D7D3D9",
"5X c #DAD5DB",
"6X c #DDDADE",
"7X c #DBD5D6",
"8X c #C5D0DD",
"9X c #E0DCDF",
"0X c #DEDBE2",
"qX c #DED5E1",
"wX c #CBD3E0",
"eX c #E2DDE4",
"rX c #E4E2E4",
"tX c #EAE6EB",
"yX c #EDECEE",
"uX c #E7E5E9",
"iX c #EEECF2",
"pX c #F2EEF2",
"aX c #F5F4F6",
"sX c #FAF6F9",
"dX c #FEFEFE",
"fX c #F8F5F7",
"gX c #F0EDEE",
"hX c None",
/* pixels */
"hXhXhXhXhXhXhXhXhXhXhXhXhXhXhXhXhXhXhXhXhXhXhXhXhXhXhXhXhXhXhXhXhXhXhXhXhXhXhXhXhXhXhXhXhXhXhXhXhXhXhXhXhXhXhXhXhX",
"hXhXhXhXhXhXhXhXhXhXhXhXhXhXhXhXhXhXhXhXhXhXhXhXhXhXhXhXhXhXhXhXhXhXhXhXhXhXhXhXhXhXhXhXhXhXhXhXhXhXhXhXhXhXhXhXhX",
"hXhXhXhXhXhXhXhXhXhXhXhXhXhXhXhXhXhXhXhXhXhXhXhXhXhXhXhXhXhXhXhXhXhXhXhXhXhXhXhXhXhXhXC C hXhXhXhXhXhXhXhXhXhXhXhX",
"hXhXhXhXhXhXhXhXhXhXhXhXhXhXhXhXhXhXhXhXhXhXhXhXhXhXhXhXhXhXhXhXhXhXhXhXhXhXhXhXhXhXhXe.g.hXhXhXhXhXhXhXhXhXhXhXhX",
"hXhXhXhXhXhXhXhXhXhXhXhXhXhXhXhXhXhXhXhXhXhXhXhXhXhXhXhXhXhXhXhXhXhXhXhXhXhXhXhXhXhX, h.j., hXhXhXhXhXhXhXhXhXhXhX",
"hXhXhXhXhXhXhXhXhXhXhXhXhXhXhXhXhXhXhXhXhXhXhXhXhXhXhXhXhXhXhXhXhXhXhXhXhXhX2 V e.r.e.0.h.e.r.w.N hXhXhXhXhXhXhXhX",
"hXhXhXhXhXhXhXhXhXhXhXhXhXhXhXhXhXhXhXhXhXhXhXhXhXhXhXhXhXhXhXhXhXhXhXhXhXhXhXV j.k.l.9.9.k.k.j. .hXhXhXhXhXhXhXhX",
"hXhXhXhXhXhXhXhXhXhXhXhXhXhXhXhXhXhXhXhXhXhXhXhXhXhXhXhXhXhXhXhXhXhXhXhXhXhXhXhXd ,.8.9.9.8.,.m hXhXhXhXhXhXhXhXhX",
"hXhXhXhXhXhXhXhXhXhXhXhXhXhXhXhXhXhXhXhXhXhXhXhXhXhXhXhXhXhXhXhXhXhXhXhXhXhXhXhXhXm 9.0.0.9.d hXhXhXhXhXhXhXhXhXhX",
"hXhXhXhXhXhXhXhXhXhXhXhXhXhXhXhXhXhXhXhXhXhXhXhXhXhXhXhXhXhXhXhXhXhXhXhXhXhXhXhXhX,.0.<.6.0.w.hXhXhXhXhXhXhXhXhXhX",
"hXhXhXhXhXhXhXhXhXhXhXhXhXhXhXhXhXhXhXhXhXhXhXhXhXhXhXhXhXhXhXhXhXhXhXhXhXhXhXhXs <.$., d <.,.hXhXhXhXhXhXhXhXhXhX",
"hXhXhXhXhXhXhXhXhXhXhXhXhXhXhXhXhXhXhXhXhXhXhXhXhXhXhXhXhXhXhXhXhXhXhXhXhXhXhXhXc m hXhXhXhX .c hXhXhXhXhXhXhXhXhX",
"hXhXhXhXhXhXhXhXhXhXhXhXhXhXhXhXhXhXhXhXhXhXhXhXhXhXhXhXhXhXhXhXhXhXhXhXhXhXhXhXhXhXhXhXhXhXhXhXhXhXhXhXhXhXhXhXhX",
"hXhXhXhXhXhXhXhXhXhXhXhXhXhXhXhXhXhXhXhXhXhXhXhXhXhXhXhXhXhXhXhXhXhXhXhXhXhXhXhXhXhXhXhXhXhXhXhXhXhXhXhXhXhXhXhXhX",
"hXhXhXhXhXhXhXhXhXhXhXhXhXhXhXhXhXhXhXhXhXhXhXhXhXhXhXhXhXhXhXhXhXhXhXhXhXhXhXhXhXhXhXhXhXhXhXhXhXhXhXhXhXhXhXhXhX",
"hXhXhXhXhXhXhXhXhXhXhXhXhXhXhXhXhXhXhXhXhXhXhXhXhXr ~.,XrXiXiX9XoXT.hXhXhXhXhXhXhXhXhXhXhXhXhXhXhXhXhXhXhXhXhXhXhX",
"hXhXhXhXhXhXhXhXhXhXhXhXhXhXhXhXhXhXhXhXhXhXhXhX(.iXdXdXdXsXfXfXsXsX4XM.hXhXhXhXhXhXhXhXhXhXhXhXhXhXhXhXhXhXhXhXhX",
"hXhXhXhXhXhXhXhXhXhXhXhXhXhXhXhXhXhXhXhXhXhXF *XfXyX3X%X.X|.+X+X+X=X4X4XM.hXhXhXhXhXhXhXhXhXhXhXhXhXhXhXhXhXhXhXhX",
"hXhXhXhXhXhXhXhXhXhXhXhXhXhXhXhXhXhXhXhXhXhX XqX,X~.Q.E.U.M.K m.M.M.N.{.XXJ hXhXhXhXhXhXhXhXhXhXhXhXhXhXhXhXhXhXhX",
"hXhXhXhXhXhXhXhXhXhXhXhXhXhXhXhXhXhXhXhXhXK *X~.J m.D ; + + : ; + + 3 i n.].A.hXhXhXhXhXhXhXhXhXhXhXhXhXhXhXhXhXhX",
"hXhXhXhXhXhXhXhXhXhXhXhXhXhXhXhXhXhXhXhXg  XU.z H.Q.H z x k k k k k i 5 o D Y.J T.hXhXhXhXhXhXhXhXhXhXhXhXhXhXhXhX",
"hXhXhXhXhXhXhXhXhXhXhXhXhXhXhXhXhXhXhXhX~.G.D #X{.H 6 y t t t t y t y i x o   K dX/.hXhXhXhXhXhXhXhXhXhXhXhXhXhXhX",
"hXhXhXhXhXhXhXhXhXhXhXhXhXhXhXhXhXhXhXhXn.B.-X&Xe + t y t y y y y y y i > H.T.  uXqXhXhXhXhXhXhXhXhXhXhXhXhXhXhXhX",
"hXhXhXhXhXhXhXhXhXhXhXhXhXhXhXhXhXhXhXs x #X,XA ; z u y y y y y y t u t z #X8XA %XpXhXhXhXhXhXhXhXhXhXhXhXhXhXhXhX",
"hXhXhXhXhXhXhXhXhXhXhXhXhXhXhXhXhXJ 0XU.x 8X'.@ i i t y y y y y y y u u 3 '.wXm.].uXo hXhXhXhXhXhXhXhXhXhXhXhXhXhX",
"hXhXhXhXhXhXhXhXhXhXhXhXhXhXhXhXhX~.dXM.D -XH.@ i y y y y y y y y y y i 5 A N.3 S.$X1 hXhXhXhXhXhXhXhXhXhXhXhXhXhX",
"hXhXhXhXhXhXhXhXhXhXhXhXhXhXhXhXhXE.dXT.3 -XJ ; z y y y y y y y y y y i 6 x v.3 G n.hXhXhXhXhXhXhXhXhXhXhXhXhXhXhX",
"hXhXhXhXhXhXhXhXhXhXhXhXhXhXhXhXhXL sX|.O '.A > i t y y y y y y y y y i 3 H .Xk + hXhXhXhXhXhXhXhXhXhXhXhXhXhXhXhX",
"hXhXhXhXhXhXhXhXhXhXhXhXhXhXhXhXhXhX*X|.o H A 5 y y y y y y y y y y y y 0 6 0 w hXhXhXhXhXhXhXhXhXhXhXhXhXhXhXhXhX",
"hXhXhXhXhXhXhXhXhXhXhXhXhXhXhXhXhXhXJ !.g # u p y y y y y i y y t t t 0 8 8 0 q hXhXhXhXhXhXhXhXhXhXhXhXhXhXhXhXhX",
"hXhXhXhXhXhXhXhXhXhXhXhXhXr hXhXhXhXhXhXa 8 4 8 6 0 0 0 t 0 0 0 8 4 4 q 4 w o hXhXhXhXhXhXhXhXhXhXhXhXhXhXhXhXhXhX",
"hXhXhXhXhXhXhXhXhXhXhXhXN d.hXhXhXhXhXhXhXk e q 4 w w 4 4 4 4 4 0 e w @ q # (.n.hXhXhXhXhXhXhXhXhXhXhXhXhXhXhXhXhX",
"hXhXhXhXhXhXhXhXhXhXhXhXd.z.. hXhXhXhXhXhX1 + # w # # w e e q w $   o A Z h |.r hXhXhXhXhXhXhXhXhXhXhXhXhXhXhXhXhX",
"hXhXhXhXhXhXhXhXhXhXhX| a.f.).|.hXhXhXhXhXD./.Z l F v > o     @ z J N.n.Z.`.,XZ.hXhXhXhXhXhXhXhXhXhXhXhXhXhXhXhXhX",
"hXhXhXhXhXhXhXhXhXhXs i.1.O.iXdXoXM.A.*XeXsXaX}.K n.A.Y.Y.F.T.T.R.Y.A.!.`.6XdXsX9X.XS.f J hXhXhXhXhXhXhXhXhXhXhXhX",
"hXhXhXhXhXhXhXhXhXhX~ 4.1.O.yXdXdXaXXXdXdXdXdXiX=X/.F.A.G.F.F.F.W.R._. XqXdXdXdXdXdX6XY.S.}.hXhXhXhXhXhXhXhXhXhXhX",
"hXhXhXhXhXhXhXhXhX6 u.2.5.I 1XdXdXdX XyXdXdXdXdXsXeX*X}.).!./._.}.=X2XyXdXfXyXfXdXdX}.D.6XdX).hXhXhXhXhXhXhXhXhXhX",
"hXhXhXhXhXhXhXhXhX| p.3.3.7.K 9XfXaX.XuXdXtX%X1XdXdXdXdXaXyXtXgXaXdXdXdXdX X_.>X2XeXZ ,XdXdX%XhXhXhXhXhXhXhXhXhXhX",
"hXhXhXhXhXhXhXhXhXq.5.3.3.3.U B.$X XW._.].R.f  XdXdX*X.XXXoX%XOXoX|.*XsXdX].Z F.`._.h =XpXtXE.hXhXhXhXhXhXhXhXhXhX",
"hXhXhXhXhXhXhXhXhX=.3.3.p.p.>.m F N.v.H.V.T.Z.2XdX5XOXuX,XiXuXyXiXsXOX1XdX>X_.G hXh 2 A.=X!.2 hXhXhXhXhXhXhXhXhXhX",
"hXhXhXhXhXhXhXhXhXu.5.u.O.q.f.u.S ;X:X:X;X^.K [.1XE.7XdX6XdXdXdXrXaX6XE.,X+XD.J hXhXhXg Z hXhXhXhXhXhXhXhXhXhXhXhX",
"hXhXhXhXhXhXhXhXh i.3.Q ! Q { f.*.v.;X;X;Xv.*XeX9X].7XdX1XdXdX9Xc.K.OXOX7XrX3Xr hXhXhXhXhXhXhXhXhXhXhXhXhXhXhXhXhX",
"hXhXhXhXhXhXhXhXd i.4._ ' &.) O.a.y.J.:X:XB.+X>X1X_.,XaX1X7XdXrXx.V.R.].1X>X*Xg hXhXhXhXhXhXhXhXhXhXhXhXhXhXhXhXhX",
"hXhXhXhXhXhXhXhXc i.3.' ( ` ( | a.a.q.I.:XN.% /./.f E.|.|.|.7XrXK +.|.v K ].1 + hXhXhXhXhXhXa hXhXhXhXhXhXhXhXhXhX",
"hXhXhXhXhXhXhXhX2 u.5.*.R W T q.i.2.p.$.L.L.W.dX,XXXfXfX2XK `.R.[.aXdXyX(.fX~.hXhXhXhXhXhXhXhXhXhXhXhXhXhXhXhXhXhX",
"hXhXhXhXhXhXhXhXhX' 3.2.*.^ &.2.2.>.t.s.y.V.b.gX].sXdXdXdX*XG R.pXdXdXdX*X1X|.hXhXr b hXhXhXhXhXhXhXhXhXhXhXhXhXhX",
"hXhXhXhXhXhXhXhXhX[ 4.3.3.2.3.3.3.=.* *.5.%. .R.oXdXdXdXdXdXJ *XdXdXaXdXyX*XQ.hXM ..o.r hXhXhXhXhXhXhXhXhXhXhXhXhX",
"hXhXhXhXhXhXhXhXhXj &.3.3.2.3.2.2.>._ *.p.3.4.P W.dXdXrXeX5XL oXsXaXdXdXyX(.{ o.' _ | hXhXhXhXhXhXhXhXhXhXhXhXhXhX",
"hXhXhXhXhXhXhXhXhXs W *.2.3.3.4.2.3.3.3.2.2.p.%.+.3X].OX>XoXG ~.,X].{.aX,XX &.;./ / b hXhXhXhXhXhXhXhXhXhXhXhXhXhX",
"hXhXhXhXhXhXhXhXhXhX} ] :.2.3.2.2.2.3.2.3.2.2.;.* ~.fXdXdXyXc $XdXdXrX|.L U R Q _ X.< hXhXhXhXhXhXhXhXhXhXhXhXhXhX",
"hXhXhXhXhXhXhXhXhXhXs ] ] ;.2./ R :.3.2.3.4.3.u.P `.eXpXtXOXg E.0XgXgX*XM ) Y W &.n hXhXhXhXhXhXhXhXhXhXhXhXhXhXhX",
"hXhXhXhXhXhXhXhXhXhXhX[ _ ( &.T _ / 4.3.3.3.2.2.I G.XX|. X].d W.$X[.|.].B T ! _ W hXhXhXhXhXhXhXhXhXhXhXhXhXhXhXhX",
"hXhXhXhXhXhXhXhXhXhXhX6 X._ ! Y Q W ;.3.3.3.2.5.&.M  X$X=X_.& D.$X$X=XG.U _ _ ] d hXhXhXhXhXhXhXhXhXhXhXhXhXhXhXhX",
"hXhXhXhXhXhXhXhXhXhXhXhXh ~ ` ( T / 4.2.3.3.2.3.o.= N. X).K I { Q. XQ.[ E ' ] n hXhXhXhXhXhXhXhXhXhXhXhXhXhXhXhXhX",
"hXhXhXhXhXhXhXhXhXhXhXhXhXj ^ ` _ / ] *.>.4.3.o.[ / U { [ - o.E Y n Y ~ @._ [ hXhXhXhXhXhXhXhXhXhXhXhXhXhXhXhXhXhX",
"hXhXhXhXhXhXhXhXhXhXhXhXhXhXj ~ _ ( ( ~ ( _ &.T _ / ' E _ ..Y &.] _ _ _ ' m hXhXhXhXhXhXhXhXhXhXhXhXhXhXhXhXhXhXhX",
"hXhXhXhXhXhXhXhXhXhXhXhXhXhXhXh ..] _ ' ( ( ~ R ~ ] ^ ' X.Y W ] ] _ ] X.b hXhXhXhXhXhXhXhXhXhXhXhXhXhXhXhXhXhXhXhX",
"hXhXhXhXhXhXhXhXhXhXhXhXhXhXhXhXhX[ X._ _ &._ o.~ ^ ^ W T Q ` ` ` o.} g hXhXhXhXhXhXhXhXhXhXhXhXhXhXhXhXhXhXhXhXhX",
"hXhXhXhXhXhXhXhXhXhXhXhXhXhXhXhXhXhXh n ..] ] ` _ ] ] ~ ] ` @.X.[ j hXhXhXhXhXhXhXhXhXhXhXhXhXhXhXhXhXhXhXhXhXhXhX",
"hXhXhXhXhXhXhXhXhXhXhXhXhXhXhXhXhXhXhXhXhXM n [ } ..| ..} [ b hXhXhXhXhXhXhXhXhXhXhXhXhXhXhXhXhXhXhXhXhXhXhXhXhXhX",
"hXhXhXhXhXhXhXhXhXhXhXhXhXhXhXhXhXhXhXhXhXhXhXhXhXhXhXhXhXhXhXhXhXhXhXhXhXhXhXhXhXhXhXhXhXhXhXhXhXhXhXhXhXhXhXhXhX",
"hXhXhXhXhXhXhXhXhXhXhXhXhXhXhXhXhXhXhXhXhXhXhXhXhXhXhXhXhXhXhXhXhXhXhXhXhXhXhXhXhXhXhXhXhXhXhXhXhXhXhXhXhXhXhXhXhX",
"hXhXhXhXhXhXhXhXhXhXhXhXhXhXhXhXhXhXhXhXhXhXhXhXhXhXhXhXhXhXhXhXhXhXhXhXhXhXhXhXhXhXhXhXhXhXhXhXhXhXhXhXhXhXhXhXhX",
"hXhXhXhXhXhXhXhXhXhXhXhXhXhXhXhXhXhXhXhXhXhXhXhXhXhXhXhXhXhXhXhXhXhXhXhXhXhXhXhXhXhXhXhXhXhXhXhXhXhXhXhXhXhXhXhXhX"
};
