/* XPM */
static char *result[] = {
/* columns rows colors chars-per-pixel */
"64 64 128 2 ",
"   c #020202",
".  c #080A09",
"X  c #131313",
"o  c #1C1D1D",
"O  c #1E201F",
"+  c #21211F",
"@  c #201E21",
"#  c #1F2120",
"$  c #232424",
"%  c #262827",
"&  c #292826",
"*  c #262729",
"=  c #252929",
"-  c #2B2C2C",
";  c #2E302F",
":  c #2E2F31",
">  c #2F3131",
",  c #333434",
"<  c #363837",
"1  c #363739",
"2  c #39373A",
"3  c #363939",
"4  c #3B3C3C",
"5  c #403E3F",
"6  c #3E403F",
"7  c #41423F",
"8  c #3E3F41",
"9  c #3F4141",
"0  c #424343",
"q  c #464847",
"w  c #494947",
"e  c #454648",
"r  c #464949",
"t  c #4B4D4C",
"y  c #4E504F",
"u  c #51514F",
"i  c #4C4E51",
"p  c #4E5151",
"a  c #535454",
"s  c #585657",
"d  c #565857",
"f  c #595957",
"g  c #545659",
"h  c #56595A",
"j  c #5A5C5C",
"k  c #5E605F",
"l  c #5D5E61",
"z  c #5E6262",
"x  c #626464",
"c  c #666867",
"v  c #646669",
"b  c #666A6A",
"n  c #6A6C6C",
"m  c #6E706F",
"M  c #676C70",
"N  c #6C6E72",
"B  c #6E7273",
"V  c #6F7478",
"C  c #727475",
"Z  c #767877",
"A  c #797977",
"S  c #737679",
"D  c #767A7B",
"F  c #7A7C7C",
"G  c #7D807F",
"H  c #80817F",
"J  c #757D81",
"K  c #7B7E81",
"L  c #7D8283",
"P  c #7F8887",
"I  c #7D8589",
"U  c #828485",
"Y  c #868886",
"T  c #888A87",
"R  c #838689",
"E  c #858A8B",
"W  c #8A8C8C",
"Q  c #8D908E",
"!  c #91928F",
"~  c #868D91",
"^  c #8A8E91",
"/  c #8D9293",
"(  c #8E9599",
")  c #929494",
"_  c #959896",
"`  c #939699",
"'  c #989699",
"]  c #959A9B",
"[  c #9A9D9D",
"{  c #96A09F",
"}  c #9DA09E",
"|  c #A0A29F",
" . c #969DA1",
".. c #9B9EA1",
"X. c #9DA2A3",
"o. c #9FA6A9",
"O. c #A2A5A5",
"+. c #A5A8A7",
"@. c #A8AAA7",
"#. c #A3A6A9",
"$. c #A5AAAB",
"%. c #AAADAC",
"&. c #AEB0AF",
"*. c #A6AEB1",
"=. c #ABAEB1",
"-. c #ADB2B2",
";. c #AEB6B8",
":. c #B2B4B4",
">. c #B5B8B6",
",. c #B8BCB7",
"<. c #B3B6B9",
"1. c #B5BABA",
"2. c #BABDBC",
"3. c #BCC0BE",
"4. c #C1C3BF",
"5. c #BCBEC1",
"6. c #BEC2C2",
"7. c #C2C4C3",
"8. c #C5C9C5",
"9. c #C8CAC7",
"0. c #C5C6C9",
"q. c #C6CACA",
"w. c #CACCCB",
"e. c #CDD1CE",
"r. c #D0D2CF",
"t. c #CACED1",
"y. c #CFD3D2",
"u. c #D1D4D1",
/* pixels */
"2 1 $ $ f B R D S K F F n 5 > 4 0 6 4 , , 6 1 a +.=.^ L M 1 8 j Z U E K K S D ' +.) +.6.1.#.X.` ] #.3.2.2.$.) ) R ] [ %.7.$.R U ",
"< O w D D S K R W W F F f > > < 4 6 0 6 4 0 & c +.*.~ h q 2 4 s C S R J V I F R O.-.X.2.1.( P P I P $.7.,.[ ) R T %.>.>.2.2.:.[ ",
", i F ) m W } | ..[ U x 0 & - 4 6 9 0 0 4 8 $ S +.[ z $ 1 8 , s N V U K J S M C L -.-.O.O.[ ( ` K D ] :.@.W F F [ &.:.>.:.:.&.@.",
"8 b K D U | +.} O.[ C t 3 ; ; 4 0 4 6 4 < , * B [ F @ 4 4 4 , s n U K N v v f n m S O.+.[ ..` G W ) ! _ W A F ' O.) } O.O.! ) ! ",
"i J R D W $.[ ) ) C w , ; % > 4 0 0 5 2 : - * l V 6 $ , 1 ; + & l S v g z C S R U l B ) | _ G m ) [ W R U T } [ W U H W E H L A ",
"N I D v U [ Y C a , - - ; ; , 4 4 0 2 < : $ * 1 >   O O $ t c x j n D J E ~ (  .] W Q F A ! H m K U T Y F Y W U H F v c m C v x ",
"J K v V Q S r > $ & & < < < < 4 4 6 4 > = > : t z 8 1 p u j n C C F Q W ^ ..$.#..._ O.&.T Y ! T C m k d n c C m c j w > s n s x ",
"K N D ^ B 0 - , , & - < < , 4 5 9 4 > - < 4 , x B z g a c Z Z C D W ..=.<.=.$.$.X.[ | @.+._ A F D v f j n n n k j t 5 0 c U [ ..",
"F D E D 4 o o 1 , , < 4 < < 2 4 4 < - , 4 & 2 n V s 4 w m T W U U ' >.9.6.-.;.;.&.-.:.&._ T F F x 5 , 0 j n x j q 2 e n ) ) ) $.",
"R K D i $ o * & ; , < < < 2 5 < , 2 < 2 - w A W U j l n F Q Q U Y [ 7.9.3.<.2.:.2.>.%.&._ F n T ! U W G h t 7 $ $ t a x W +.X.%.",
"U U x * X X o @ ; , < < , 5 4 4 4 4 5 - t H W ) T U T A U W ) _ W O.5.5.2.2.:.2.4.:.@.@.) F n x _ @.%.&.O.H n x W ! J Z L +.;.&.",
"J C a : $ o @ $ % - , > - - < 4 5 2 ; w H W ' ) U R U A A Q ) ) W ' 2.1.7.9.>.2.2.@.@.@.U c f x } %.X.[ X.-.&.%.2.:.[ W X...( ( ",
"m H t o & + o ; , ; ; ; - - 5 < 2 - t F T ) [ ` H U K n j F ) ) ) ) $.0.6.2.>.-.&.:.+.U A j 0 c O.+.O.[ O.&.1.2.5.7.4.2.:.&.[ G ",
"x m s . . $ o + ; , , , > , , , 1 w Z Y Q O.+.) Y W S n S K ) [ [ [ O.%.+.+.O.X.O.@.Q c n s 7 x | &.$.&.:.:.:.:.5.2.9.r.3.:.2.-.",
"a v C l X   @ @ & : & & ; - - 5 2 c Y F [ ' W Y D T C C ^ E ] R _ +.#.] [ ' ' _ ) W n x x t @ n >.+.} O.:.>.;.;.<.2.r.u.6.:.;.:.",
"4 t a x c u - @ & - & o + , 7 7 2 x W R [ ) C F C n c k L D C K [ ) / ] ) F n k x k n k u , 1 _ -.X.[ X.$.%.-.-.*.5.t.9.2.2.2.:.",
"$ @ 4 k n x 4 & X   o w a f x 0 2 c T Q R ' K K D n N c Z D x M D S D / } [ W m f t u 7 d F ' &.%.+.{ } #.#.*.*.-.1.5.1.<.<.<.<.",
"5 j x q , & o o x G Q [ ) n x f 2 n ) ! F T W D C Z Y C n D Z v h p z W ) _ %.' W ) ) [ [ X.' %.-.$.#.+.o.o.o.o.;.1.2.:.X.X.%.;.",
"0 n k u k f w W ,.7.-.X.Q V z x j H _ _ T U R H C Z U F n n A B v p q S U D / ..+.%.:.:.$.O.' +.>.:.*.*.] ~ ..%.-.5.8.1.+.X.$.-.",
"u x f a x x U >.:.:.-.[ Q V p j W ) ! ) ! U F C c x n C C Z Z c j b n S F n Z ] X.O.%.O.%.1.%.%.%.$.=.$.X.o.<.1.2.q.w.6.-.1.5.5.",
"y a y a t x ) +.+.$.*. .( L a n ' W ^ ^ Q W T m n x a x C H C c b b U W 0 l N ( [ [ X.#.&.>.>.:.:.%.=.-.%.5.q.8.9.9.w.2.2.,.2.:.",
"t d y q t D ) } +.+.} _ / ^ R T / L D U W T U E L S f i m n c n n n S g o q B ^ X...$.>.:.=.&.2.4.4.5.5.w.w.y.w.9.8.4.,.-.%.>.%.",
"q y 6 4 f C U &.%.$.X.X.[ [ O.%.O. .U U U D F E U L M p n c a f j x 4 & 6 ; x ' &.,.2.2.>.=.=.5.7.0.q.7.0.6.q.1.2.8.&.O.} | 1.>.",
"4 < 6 7 k n W :.-.%.%.#.$.1.1.%...' ^ T T H R E K F L D f j x j j 6 - 2 4 , a ) O.&.:.:.=.=.$.-.7.w.7.:.<.<.<.-.:.:.[ ) ' O.1.7.",
"9 6 4 0 a n / X.#.*.#.X.-.6.-.X.' ( E D W W W W W F T U f x m c q , , ; 4 4 5 F T } &.%.&.%.#.=.6.w.5.*.o.X.[ [ +.' ' ) / $.1.0.",
"0 4 6 t e K ] [ X.X.$.:.<.#.o.X.^ E ` D W | ) W ) ! _ ) x c C k t , , < 4 7 > t T ' +.+.&.@.$.2.6.6.;.( ~ [ W K U ) Q J U <.2.7.",
"9 0 9 j r Y $.o.X.X.:.2.#. .] ] ^ Y ..' ) ' T U _ [ ! W Z m C j t < < 4 7 5 2 5 ) } _ +.+.%.=.>.<.1.o.( ( *.X.m a x D F  .2.2.w.",
"1 7 y m i L $.$.$.:.2.-.X.( ] ` ( K [ >.+.) T F T ! U c A Y G j 6 < 4 6 7 7 , t W } O.$.>.:.&.=.;.;.X. .o.;...v W +.$.%.=.<.6.w.",
"1 q C Z n ' &.-.2.7.1.$.[ ( ` ] ^ ^ $.:.O.[ / R T W N x U / C t 4 4 0 5 0 0 2 u W ..=.:.:.=.#.$.-.*.o.O.+.) W Z 2.u.w.>.;.%.6.t.",
"1 j T U Q 2.6.7.6.1.%.X.) ]  .[ ^ O.%.@.| %.] U U U n x F W C 7 ; 4 7 7 7 0 5 0 D [ -.=.=.X.o.#.+. .X.#.[ O._ O.2.4.8.6.1.1.5.6.",
", x Z L W %.2.2.-.%.#.( [ X.X.[ | :.-.| } +.) R D S v a C T H a - 4 7 4 4 0 4 < B ] +.O.$.X.] X.X./ ( [ O.:.| $.7.7.0.w.w.0.1.<.",
", h m S / O.&.-.o.X. .( O.O.X.-.>.:.%.' ! ) ) K C n n s a F T d > 4 4 4 4 7 4 4 M / [ [ -.$.X.X. ./  .X.$.X.' -.7.u.y.y.y.q.5.<.",
"< a n k / X.%.%.*.O.' ..:.%.>.0.7.-.O.] R R P P C h v M 4 n U t > 4 4 4 4 4 4 q C ` ..O.>.>.=.*.$...#.*.` ( -.7.0.u.w.q.w.w.6.5.",
"4 a x n } :.:.%.=.$...<.2.:.5.9.2.%.#. .L B J I S s x l 8 c A t - 2 4 7 1 , < t C ` o. .:.1.>.-.=.*.$.%.+.O.2.7.6.q.u.7.5.w.w.6.",
"6 0 t A $.6.1.2.>.*. . .O.%.=.1.:.$.o.( L V V V N l b h e n Z t > 4 7 4 1 , - t J  ...` ` <.4.>.=.:.-.:.1.>.2.-.%.2.w.y.0.y.y.6.",
"< 4 6 x ) ;.;.:.=.../ R W  .#.@.:.=.[ ~ J J V b M v B h t M A j < 2 7 4 : , < x K ] X.` ` +.<.%.=.5.0.1.>.-.-.$.#.<.5.6.3.q.w.1.",
"t 4 9 p J ]  . .#.] ~ L L ^  .%.2.:.X.T D L S c N K n a j x C c 6 , 0 4 1 - p E F R .. .! ..=.X.( 1.q.6.;.+.o.o.X.-.5.;.$.6.6.-.",
"j r 9 1 l ~ / ~ ^ ^ ( J K ^ ^ %.4.:.[ _ T R D m K I B C k u c n w < 4 4 < 1 r M Y ^ ....` [ $.X.( [ -.5.1.$.X.#.*.<.<.-.;.2.1.o.",
"M 9 9 e 1 V ~ L L I ~ ^ ! ) O.>.4.&.%.&.| ] / ^ W R ) D d j m n 0 q < 1 4 4 0 x | $.+.$.O...X.o.` ) ` +.1.<.*.%.<.1.;.-.1.1.*.o.",
"M i 8 9 p N I ~ J J I  .&.&.:.2.3.&.%.O.] [ [ ) ^ U F C k c C k , y 4 , 4 4 0 D -.>.-.:.-.$.#.X.] ) ^ ..=.5.1.5.6.<.;.5.5.*.o.o.",
"c l e 9 l j z V D F R O.:.@.=.:.:.,.+.W ^ ` ( ^ ~ V z b n n k q 4 u 6 1 8 < c ) $.,.2.:.;.&.*.#.X.^ ^ ` O.=.4.w.6.<.6.6.5.;.o.*.",
"z g i 9 i g 4 6 F T ' %.+.' ..+.&.&.[ / ` ^ K U D b z k C n y q q d 0 4 8 9 L ` [ O.%.-.+.X.=.*...` ] ` ' [ <.4.6.1.7.7.7.1.$.*.",
"B j 9 4 e e , - n [ :.:.$. .` ..@.%.| ..( L S L M m z y x k a t 0 c u < < v D R ` ` X.&.$.-.&.-.o. ...` ^  .<.1.<.<.2.8.y.6.*.$.",
"S B l g t 9 9 > q W O.O.$...L X.%.>.+.) ( U J L D B g p j f t y w j f , z E D V ~ R / [ X.-.X.$.*.#.o.` ^ +.1.-.$.>.:.4.u.0.5.*.",
"C N j x j h t t x Z c l M z v F [ :.} X.] ` / U L G x r j a f c r f j g S ~ R V D L I ( { X.X.X.-.-.*.#.+.:.4.:.O.O.[ :.7.2.<.-.",
"D D j j l f y d x b j w a 0 w e s F ..%.' [ / W S S z 0 a w j j 0 h V R S M V D B B b L L U R W $.1.<.>.2.8.7.-.$.O.) ) $.O.$.-.",
"F C C c f a n ! T x z l j j h i 5 7 B ] _ R K L x p u , 1 4 5 5 0 D O.` S V B V B V S W W L D K ' 1.0.7.2.r.r.:.:.7.-.O.#.X.#.-.",
"c k Z m j n U ..O.( R D F S B i 2 u h F Q W G D m 0 - , < 4 5 4 6 R ..` R L L J L E / ] [ ] ) F D +.2.%.&.7.t.2.1.4.1.%.#.-.<.6.",
"x u x c x G O.X.] ] ) Y U H W F w j x c F ' / U B a q , 1 4 7 , u R ^ ^ ~ L U ^ T ] +.%.| ) W Y T O.%.&.&.2.7.6.2.$.*.o.+.:.7.w.",
"x x f f j L $.O.W R ] ) F R T R C n j f x F Q F z x C 0 2 7 0 - c ^ K J J ~ ` ^ ) O.%.-.O.} W T ! [ @.>.2.7.7.6.2.>.+.o.;.>.:.2.",
"i g c s i E +./ D b / ] R ^ ^ U U A k n m c W C k m F x 7 4 7 < D | ` E U ^ ..' Q T F S F Q [ ! U F ) %.1.<.&.:.1.2.o.*.3.>.X.( ",
"i 8 9 d p W X.( L M J ` Y ' ) C n m x n c d F F x C n x x 7 7 y Q .... .E ) +.' D N b B L W O.@.W D Y ) [ X.X.$.,.*.X.-.8.6.$.W ",
"t 8 , 9 c T ] ( P N D ( ' #. .! D c c A k r m n c Z C x m d 3 n } +.[ ` ) O.@.^ U U J B F W +.%.] R T )  .X.X.-.-.#.o.%.3.8.%./ ",
"d q , w n R / I I D v ^ +.' ^ Y U n k k k q m x d m n c c k f U | [ ..| ..) W ^ ^ ^ E E U G [ +.[ W R ( X.#.+.$.$.#.-.<.,.3.$. .",
"t t < 0 C K ) E ~ J l Y %.` ^ M N F n y f z S p n n j j x n F [ O.+.=.1.%.) ^ ` [ ] ( E ' ) _ @.O.[ ] / / *.-.O...[ $.>.3.:.X.;.",
"2 w d w x C W ~ R K l Y %.+. .D n B f y d c z j n f p j c C } O.O.$.X.+.:.O.R ( ` ^ ] ` ) ` ) | } X.O.X.` +.-.[ W ) _ ' &.>.O.>.",
"< 2 f j x l l ~ ( I v T -.#.` S S c y q 6 w t m V j a x n W =.%.O.O.O.X.-.$.] ) ) W X.] ~ _ [ O...[ X.%.} } $.[ U F W _ $.$.O.2.",
"2 , a c l a * z  .] L ) @.O.^ B F m w q 4 4 4 Z R u v C G W [ #.` E ....X.-.O.#.[ W ] ( L / } &.%...+.%.$.+.$.O.' [ X./ } O.1.5.",
", > 9 k s 0 , 4 C ^ [ +...] F S F V w 4 < 0 t D n 5 M U Y Y K ) E K ~ ....$.#.$.[ W / E P R ) :.2.$.+.:.&.$.$.X._ ( U N E #.<.2.",
"- , 2 0 p 0 = 8 f f Y ` ` P z L Z m t , 6 d b Z g e a H Y T E ^ ( ~ [ $.=.-.&.O.` E / E L ~ Q ) %.:.:.-.+.3.:.<.O.W ` ` ] X.#./ ",
"- o & < e a , o w r 6 z L z d P x n x j 0 Z D C l r i l D W ) ^ ^ ^ [ %.1.2.>.+./ N M L U W ' R Q %.:.%.;.:.<.-.o.-.1.-.%.&.+.R ",
"- - $ - < t g 0 9 q , 3 v a w n f C k f s v L F J l i 8 w S / ) ` ^ U ..>.2.:.%.( N l v C K R R } :.@.:.-.} 2.>.-.-.+.[ &.3.2.2.",
"& & > - 0 > t k l t , 4 a j t u t x n 2 f v m C M l 8 8 8 8 n F E ~ L F +.2.:.=.( D z M M N S C @.:.@.=.+.+.} :.:.] E ) +.2.3.7.",
"$ > , , 0 < > y k p ; , y u j a 1 t k 0 a x l l e , : : 8 , i z z V K S F [ %.*.( ~ J K J C H H ' #.#.W ^ X.] +.%...[ ' ) 7.0.:."
};
